<svg aria-hidden="true" style="position: absolute; width: 0; height: 0; overflow: hidden;" version="1.1" xmlns="http://www.w3.org/2000/svg" xmlns:xlink="http://www.w3.org/1999/xlink">
<defs>
<symbol id="icon-wikipedia" viewBox="0 0 32 32">
<path d="M15.867 23.52c-1.279 2.639-3.029 6.213-3.898 7.825-0.842 1.467-1.54 1.272-2.093 0.040-1.921-4.537-5.865-12.492-7.72-16.953-0.343-0.821-0.602-1.348-0.846-1.556-0.247-0.205-0.757-0.328-1.533-0.37-0.287-0.033-0.428-0.102-0.428-0.217v-0.622l0.071-0.061c1.262-0.007 7.379 0 7.379 0l0.070 0.061v0.593c0 0.163-0.102 0.24-0.307 0.24l-0.771 0.042c-0.663 0.040-0.993 0.224-0.993 0.596 0 0.184 0.072 0.451 0.227 0.821 1.478 3.615 6.582 14.373 6.582 14.373l0.186 0.063 3.294-6.571-0.658-1.458-2.265-4.459c0 0-0.434-0.893-0.585-1.191-0.995-1.971-0.973-2.074-1.977-2.209-0.283-0.031-0.428-0.068-0.428-0.204v-0.639l0.082-0.061h5.864l0.154 0.051v0.616c0 0.143-0.104 0.205-0.31 0.205l-0.421 0.064c-1.082 0.083-0.903 0.521-0.186 1.943l2.161 4.443 2.402-4.787c0.4-0.874 0.318-1.094 0.152-1.294-0.096-0.115-0.417-0.301-1.109-0.328l-0.275-0.029c-0.071 0-0.134-0.021-0.198-0.070-0.061-0.042-0.092-0.104-0.092-0.176v-0.583l0.083-0.061c1.704-0.011 5.523 0 5.523 0l0.081 0.061v0.596c0 0.165-0.081 0.243-0.264 0.243-0.883 0.041-1.068 0.13-1.398 0.6-0.164 0.254-0.512 0.805-0.883 1.419l-3.144 5.838-0.089 0.184 3.814 7.804 0.232 0.066 6.006-14.26c0.21-0.576 0.176-0.986-0.087-1.223-0.269-0.235-0.473-0.373-1.171-0.403l-0.574-0.022c-0.083 0-0.143-0.019-0.208-0.061-0.059-0.040-0.098-0.102-0.098-0.163v-0.596l0.081-0.061h6.778l0.056 0.061v0.597c0 0.163-0.101 0.246-0.286 0.246-0.885 0.041-1.54 0.246-1.971 0.575-0.429 0.348-0.761 0.842-1.006 1.458 0 0-5.523 12.648-7.413 16.857-0.717 1.376-1.439 1.253-2.053-0.042-0.78-1.6-2.422-5.172-3.615-7.801z"></path>
</symbol>
</defs>
</svg>
